# xmcd
#
# Track frame offsets: 
#        150
#        27775
#        46754
#        66465
#        86461
#        105673
#        126372
#        148091
#        168308
#        186323
#        204312
#        225272
#        251896
#        279574
#        301106
#        331461
#
# Disc length: 4445 seconds
#
# Revision: 0
# Processed by: cddbd v1.5.1PL2 Copyright (c) Steve Scherf et al.
# Submitted via: ExactAudioCopy v0.95b3
#
DISCID=df115b10
DTITLE=Earl Klugh - Star Profile
DYEAR=1900
DGENRE=Blues
TTITLE0=The Wiggle
TTITLE1=Slow Boad To Rio
TTITLE2=Peculiar Situation
TTITLE3=By The Sea
TTITLE4=Only You
TTITLE5=Now And Again (feat. Robert Flack)
TTITLE6=Till The End Of Time
TTITLE7=Last Song
TTITLE8=4 Minute Samba
TTITLE9=Walk In The Sun
TTITLE10=Thin Ice
TTITLE11=Fingerdance
TTITLE12=Autumn Song
TTITLE13=Desert Paradice
TTITLE14=Southern Dog
TTITLE15=Plus
EXTD=
EXTT0=
EXTT1=
EXTT2=
EXTT3=
EXTT4=
EXTT5=
EXTT6=
EXTT7=
EXTT8=
EXTT9=
EXTT10=
EXTT11=
EXTT12=
EXTT13=
EXTT14=
EXTT15=
PLAYORDER=
